<?xml version="1.0" standalone="no"?>
<!DOCTYPE svg PUBLIC "-//W3C//DTD SVG 20010904//EN"
 "http://www.w3.org/TR/2001/REC-SVG-20010904/DTD/svg10.dtd">
<svg version="1.0" xmlns="http://www.w3.org/2000/svg"
 width="420.000000pt" height="420.000000pt" viewBox="0 0 420.000000 420.000000"
 preserveAspectRatio="xMidYMid meet">

<g transform="translate(0.000000,420.000000) scale(0.100000,-0.100000)"
fill="#000000" stroke="none">
<path d="M0 2100 l0 -2100 470 0 c487 0 476 -1 470 39 -1 10 4 11 17 6 10 -4
54 -16 98 -26 76 -18 155 -18 1613 -19 l1532 0 0 2100 0 2100 -2100 0 -2100 0
0 -2100z m2134 1001 c76 -21 132 -66 167 -134 31 -59 79 -196 84 -239 3 -22
12 -49 20 -61 21 -32 43 -136 37 -178 -2 -20 6 -73 17 -118 49 -187 18 -321
-121 -538 -28 -43 -40 -58 -109 -132 -39 -42 -41 -43 -86 -37 -64 8 -90 28
-103 77 l-11 41 -60 -6 c-90 -11 -90 -10 -83 -71 6 -51 6 -53 -29 -79 -58 -44
-94 -44 -179 -1 -104 54 -155 90 -251 177 -75 69 -89 88 -141 190 -32 62 -62
118 -66 123 -4 6 -15 49 -26 97 -10 48 -21 85 -25 82 -4 -2 -6 13 -4 33 3 42
-3 65 -15 58 -4 -3 -6 68 -3 158 7 304 30 364 157 422 124 56 215 82 331 94
61 6 160 22 220 35 137 30 192 31 279 7z m1640 -22 c14 -11 26 -27 26 -35 0
-8 -38 -90 -85 -182 -59 -116 -81 -170 -74 -177 14 -13 20 -3 137 199 103 178
125 206 157 206 25 0 75 -36 75 -53 0 -14 -75 -146 -154 -272 -83 -134 -96
-159 -86 -175 11 -18 -3 -35 129 162 122 183 139 198 189 161 15 -11 28 -28
30 -37 4 -18 -34 -82 -105 -180 -24 -32 -40 -62 -37 -67 3 -5 1 -9 -5 -9 -18
0 -111 -144 -100 -155 12 -11 18 -5 121 128 59 75 72 87 98 87 28 0 70 -29 70
-49 0 -4 -11 -25 -25 -45 -14 -20 -25 -38 -25 -40 0 -4 -18 -26 -86 -105 -17
-20 -60 -81 -96 -136 -94 -143 -146 -185 -242 -198 -46 -6 -64 -20 -49 -39 6
-7 15 -29 22 -48 17 -56 109 -607 136 -820 51 -411 55 -542 15 -620 -22 -43
-74 -87 -105 -89 -62 -3 -80 0 -130 23 -55 25 -274 170 -318 210 -26 23 -147
115 -218 165 l-47 33 31 71 c33 73 103 159 171 209 l39 28 87 -80 c81 -74 87
-83 99 -137 8 -31 17 -64 22 -73 15 -26 40 -103 54 -163 8 -33 16 -61 19 -65
15 -15 3 60 -28 171 -51 179 -55 200 -75 377 -19 164 -27 306 -37 635 -4 129
-12 239 -20 265 -7 25 -22 77 -34 115 -15 50 -23 115 -29 229 l-9 159 -43 41
c-71 67 -74 72 -56 100 22 33 66 41 113 21 56 -23 73 -42 90 -101 8 -29 24
-64 34 -76 l20 -23 20 25 c11 14 61 106 111 205 129 254 144 271 203 224z
m-1238 -557 c6 -4 16 -16 22 -27 14 -27 42 -203 37 -235 -2 -14 -4 -40 -4 -58
-1 -25 -6 -35 -21 -39 -11 -3 -20 -14 -20 -24 0 -11 -5 -16 -14 -13 -9 3 -17
43 -26 127 -7 67 -20 149 -29 182 -15 53 -15 62 -2 78 16 18 38 22 57 9z
m-1376 -162 c0 -5 -5 -10 -11 -10 -5 0 -7 5 -4 10 3 6 8 10 11 10 2 0 4 -4 4
-10z m-97 -94 c28 10 50 -45 52 -130 2 -61 9 -97 29 -145 30 -75 35 -111 11
-91 -19 16 -47 6 -39 -15 3 -8 2 -15 -3 -15 -35 0 -98 92 -133 196 -41 118
-17 227 45 204 14 -5 31 -7 38 -4z m612 -851 c22 -4 51 -14 65 -23 55 -36 182
-91 222 -97 53 -8 56 -11 36 -32 -15 -15 -29 -11 -171 46 -165 68 -277 126
-222 117 17 -2 48 -8 70 -11z"/>
<path d="M2080 2821 c-94 -18 -110 -25 -110 -47 0 -31 45 -38 117 -19 111 29
129 29 169 6 20 -12 39 -20 41 -17 9 9 -38 61 -70 78 -38 21 -40 21 -147 -1z"/>
<path d="M1560 2735 c-8 -2 -51 -9 -95 -16 -65 -10 -85 -18 -112 -43 -38 -36
-74 -109 -48 -100 9 4 20 15 26 25 17 33 69 51 171 59 104 8 152 27 146 58 -3
16 -50 25 -88 17z"/>
<path d="M2117 2626 c-22 -8 -50 -25 -64 -38 -27 -25 -57 -77 -49 -85 2 -3 12
9 21 26 24 48 85 83 143 83 70 0 125 -33 160 -97 9 -16 11 -16 12 -4 0 25 -42
81 -75 100 -44 25 -104 31 -148 15z"/>
<path d="M2114 2575 c-17 -7 -39 -23 -48 -36 -36 -52 -4 -141 56 -157 37 -10
68 -5 68 11 0 18 31 46 45 41 21 -8 28 49 11 89 -22 53 -78 75 -132 52z m3
-46 c14 -14 6 -39 -12 -39 -18 0 -28 17 -21 35 6 18 18 19 33 4z"/>
<path d="M1478 2516 c-76 -27 -129 -94 -127 -159 l2 -32 6 30 c15 76 64 125
144 146 63 17 120 -1 170 -53 22 -23 37 -33 37 -24 0 24 -69 85 -109 96 -47
13 -78 12 -123 -4z"/>
<path d="M1464 2446 c-36 -36 -44 -74 -23 -119 20 -44 93 -70 144 -51 12 5 13
9 5 14 -8 5 -7 12 5 24 9 9 21 14 26 10 17 -10 30 47 19 82 -16 46 -54 74
-102 74 -32 0 -47 -7 -74 -34z m46 -35 c0 -27 -19 -36 -37 -18 -18 18 -9 37
18 37 12 0 19 -7 19 -19z"/>
<path d="M1997 2203 c-10 -51 -98 -72 -137 -33 -26 26 -33 25 -25 -1 13 -39
38 -59 75 -59 68 0 127 62 102 107 -7 12 -10 9 -15 -14z"/>
<path d="M2105 2125 c-49 -13 -105 -24 -123 -24 -30 -1 -53 -23 -39 -37 3 -3
54 6 114 21 165 39 184 45 178 55 -8 14 -26 11 -130 -15z"/>
<path d="M2175 2085 c-11 -8 -56 -18 -100 -23 -48 -6 -97 -18 -122 -31 -27
-15 -53 -21 -72 -18 -16 3 -67 -3 -113 -14 -46 -10 -100 -19 -121 -19 l-38 0
15 -29 c18 -33 105 -92 141 -95 14 0 25 -4 25 -8 0 -5 29 -8 65 -8 80 0 185
33 226 71 16 15 29 25 29 21 0 -9 51 52 64 78 12 22 29 91 23 89 -1 0 -11 -6
-22 -14z m-45 -75 c0 -5 -8 -11 -18 -14 -27 -9 -294 -56 -316 -56 -20 0 -15
12 7 17 13 3 102 25 177 44 102 26 150 29 150 9z"/>
<path d="M1833 2075 c-23 -7 -85 -19 -137 -25 -56 -7 -100 -18 -107 -26 -16
-19 5 -18 171 6 74 11 138 20 143 20 4 0 7 9 7 20 0 23 -16 24 -77 5z"/>
<path d="M2218 1890 c-19 -26 -23 -50 -9 -50 16 0 33 29 29 52 l-3 23 -17 -25z"/>
<path d="M1750 1827 c14 -8 41 -17 60 -21 l35 -6 -35 14 c-19 7 -46 16 -60 20
l-25 7 25 -14z"/>
<path d="M2514 2435 c-22 -59 -14 -65 19 -14 30 46 33 59 13 59 -8 0 -22 -20
-32 -45z"/>
<path d="M2525 2270 c-3 -5 -1 -10 4 -10 6 0 11 5 11 10 0 6 -2 10 -4 10 -3 0
-8 -4 -11 -10z"/>
<path d="M980 2200 c0 -9 45 -41 98 -69 22 -12 23 -11 13 7 -25 47 -111 95
-111 62z"/>
</g>
</svg>
