<?xml version="1.0" standalone="no"?>
<!DOCTYPE svg PUBLIC "-//W3C//DTD SVG 20010904//EN"
 "http://www.w3.org/TR/2001/REC-SVG-20010904/DTD/svg10.dtd">
<svg version="1.0" xmlns="http://www.w3.org/2000/svg"
 width="840.000000pt" height="981.000000pt" viewBox="0 0 840.000000 981.000000"
 preserveAspectRatio="xMidYMid meet">

<g transform="translate(0.000000,981.000000) scale(0.100000,-0.100000)"
fill="#000000" stroke="none">
<path d="M4050 9785 c-36 -8 -90 -24 -120 -36 -30 -12 -473 -273 -985 -578
-511 -306 -1314 -786 -1784 -1066 -794 -474 -860 -515 -931 -585 -90 -89 -147
-180 -192 -310 l-33 -95 0 -2205 c0 -2079 1 -2209 18 -2270 41 -151 140 -310
246 -396 81 -66 969 -594 1116 -664 268 -128 384 -160 610 -167 250 -8 417 21
594 103 313 147 501 430 550 829 8 63 11 719 11 2163 l0 2074 -34 34 -34 34
-276 0 c-192 0 -283 -4 -301 -12 -59 -27 -55 112 -55 -2107 0 -1461 -3 -2055
-11 -2093 -49 -231 -254 -366 -502 -330 -90 13 -194 45 -267 82 -88 44 -915
543 -940 567 l-25 23 -3 2081 c-2 1811 0 2083 13 2108 8 16 46 48 87 73 40 25
368 225 728 445 360 220 1096 669 1635 998 538 329 991 603 1005 608 15 6 37
7 51 4 13 -4 791 -475 1729 -1046 1238 -756 1711 -1049 1728 -1072 l22 -32 0
-2078 0 -2079 -27 -30 c-21 -23 -3295 -1979 -3425 -2046 -58 -30 -18 -49 -558
271 -435 257 -431 255 -466 255 -15 0 -76 -28 -138 -64 -149 -86 -238 -130
-369 -181 -107 -42 -147 -65 -147 -85 0 -30 107 -101 630 -421 704 -431 687
-421 785 -455 70 -24 96 -28 205 -28 104 -1 137 3 200 23 107 33 142 52 679
373 625 374 1642 981 2306 1378 649 388 688 412 745 458 83 66 146 147 196
247 87 177 79 -60 79 2425 l0 2205 -33 95 c-55 157 -148 291 -260 373 -84 62
-3565 2139 -3626 2164 -124 51 -293 66 -426 38z"/>
<path d="M4817 6810 c-842 -95 -1296 -527 -1264 -1200 22 -453 247 -726 728
-884 207 -68 411 -105 859 -156 663 -75 957 -154 1084 -290 62 -66 81 -132 73
-260 -19 -322 -227 -498 -669 -567 -139 -21 -578 -24 -733 -4 -497 62 -729
237 -801 600 -30 154 -23 151 -343 151 l-249 0 -31 -26 c-39 -33 -45 -66 -32
-194 50 -489 366 -861 883 -1038 521 -179 1250 -190 1763 -25 605 194 937 641
912 1228 -15 354 -133 578 -393 744 -230 148 -542 232 -1229 331 -817 117
-1031 180 -1108 323 -19 37 -22 57 -21 157 0 148 21 206 103 289 89 92 228
149 443 183 130 20 632 17 776 -5 366 -57 540 -177 627 -432 18 -51 38 -90 56
-107 l29 -28 251 0 c276 0 296 4 319 60 17 40 7 151 -24 274 -125 490 -508
765 -1201 862 -138 19 -678 28 -808 14z"/>
</g>
</svg>
